<svg width="162" height="45" viewBox="0 0 162 45" fill="none" xmlns="http://www.w3.org/2000/svg">
<rect y="5" width="162" height="20" fill="#79E048"/>
<rect y="25" width="162" height="20" fill="#48C5E0"/>
<path d="M44.892 33.712C44.892 33.952 44.64 34.072 44.136 34.072H43.74C43.404 34.072 42.792 34.06 41.904 34.036C41.016 34.012 40.332 34 39.852 34C39.132 34 38.292 34.012 37.332 34.036C36.348 34.036 35.7 34.036 35.388 34.036H35.136C34.632 34.036 34.38 33.928 34.38 33.712C34.38 33.472 34.728 33.352 35.424 33.352C36.648 33.352 37.392 33.22 37.656 32.956C37.776 32.836 37.836 32.032 37.836 30.544V11.896C37.836 11.92 37.704 12.34 37.44 13.156C36.48 16.06 35.088 20.428 33.264 26.26L31.572 31.984C31.236 33.112 30.996 33.676 30.852 33.676C30.684 33.676 30.504 33.388 30.312 32.812C29.616 30.628 27.648 25.18 24.408 16.468L22.968 12.616C22.992 13.072 23.004 13.696 23.004 14.488V26.188C23.004 30.58 23.04 32.8 23.112 32.848C23.28 33.16 23.856 33.316 24.84 33.316C25.632 33.316 26.028 33.424 26.028 33.64C26.028 33.88 25.776 34 25.272 34C24.96 34 24.672 33.988 24.408 33.964C24.072 33.94 23.772 33.928 23.508 33.928L19.368 34.036C18.936 34.036 18.72 33.928 18.72 33.712C18.72 33.472 19.404 33.34 20.772 33.316C21.348 33.316 21.684 33.22 21.78 33.028C21.876 32.836 21.924 32.212 21.924 31.156V13.912C21.924 11.92 21.9 10.84 21.852 10.672C21.756 10.336 21.552 10.108 21.24 9.988C20.928 9.868 20.256 9.772 19.224 9.7C18.84 9.676 18.648 9.568 18.648 9.376C18.648 9.112 18.996 8.98 19.692 8.98C19.788 8.98 19.992 8.992 20.304 9.016H22.176C23.592 9.016 24.588 9.004 25.164 8.98C25.284 9.292 25.992 11.176 27.288 14.632C27.84 16.072 29.388 20.272 31.932 27.232C32.388 25.672 32.856 24.136 33.336 22.624L37.152 10.708C37.368 10.012 37.56 9.436 37.728 8.98L43.128 8.944C43.92 8.944 44.376 8.98 44.496 9.052C44.616 9.124 44.676 9.232 44.676 9.376C44.676 9.616 44.472 9.736 44.064 9.736C43.392 9.736 42.936 9.76 42.696 9.808C42.12 9.904 41.724 10.096 41.508 10.384C41.388 10.552 41.328 11.956 41.328 14.596V31.336C41.328 32.296 41.424 32.86 41.616 33.028C41.928 33.244 42.708 33.352 43.956 33.352H44.172C44.652 33.352 44.892 33.472 44.892 33.712ZM60.6198 32.38C60.6198 32.788 60.1878 33.22 59.3238 33.676C58.4838 34.108 57.6678 34.324 56.8758 34.324C55.2198 34.324 54.3558 33.472 54.2838 31.768C53.3718 33.544 51.9558 34.432 50.0358 34.432C49.0038 34.432 48.1518 34.132 47.4798 33.532C46.8078 32.908 46.4718 32.116 46.4718 31.156C46.4718 29.188 47.6598 27.628 50.0358 26.476C50.8518 26.092 52.2678 25.708 54.2838 25.324V24.424C54.2838 22.312 54.1758 20.92 53.9598 20.248C53.5758 19.024 52.7118 18.412 51.3678 18.412C50.5278 18.412 49.8198 18.64 49.2438 19.096C48.6918 19.552 48.4158 20.128 48.4158 20.824C48.4158 21.016 48.5598 21.112 48.8478 21.112C49.1598 21.112 49.4358 21.256 49.6758 21.544C49.9158 21.832 50.0358 22.156 50.0358 22.516C50.0358 23.572 49.5078 24.1 48.4518 24.1C47.8998 24.1 47.4438 23.92 47.0838 23.56C46.7238 23.176 46.5438 22.696 46.5438 22.12C46.5438 20.992 46.9878 20.02 47.8758 19.204C48.8598 18.316 50.2278 17.872 51.9798 17.872C54.6198 17.872 56.2398 18.592 56.8398 20.032C57.0558 20.584 57.1638 21.676 57.1638 23.308V30.04C57.1638 31.144 57.1758 31.792 57.1998 31.984C57.3198 32.848 57.6678 33.28 58.2438 33.28C58.9158 33.28 59.4678 33.04 59.8998 32.56C60.1398 32.296 60.3198 32.164 60.4398 32.164C60.5598 32.164 60.6198 32.236 60.6198 32.38ZM54.2838 28.564V25.936C52.4838 26.344 51.1878 26.884 50.3958 27.556C49.6278 28.204 49.2438 29.08 49.2438 30.184C49.2438 30.952 49.4598 31.588 49.8918 32.092C50.3478 32.572 50.9118 32.812 51.5838 32.812C52.6158 32.812 53.4438 32.236 54.0678 31.084C54.2118 30.82 54.2838 29.98 54.2838 28.564ZM76.6924 33.28C76.6924 33.448 76.5244 33.532 76.1884 33.532H76.0084C75.8164 33.532 75.6124 33.52 75.3964 33.496C75.2044 33.496 75.1084 33.496 75.1084 33.496C73.9324 33.496 72.9364 33.736 72.1204 34.216C71.7844 34.408 71.5804 34.504 71.5084 34.504C71.2924 34.504 71.1844 34.36 71.1844 34.072L71.2204 32.956C70.1884 33.94 68.9644 34.432 67.5484 34.432C65.5324 34.432 63.8644 33.664 62.5444 32.128C61.2484 30.568 60.6004 28.588 60.6004 26.188C60.6004 23.716 61.2484 21.712 62.5444 20.176C63.8644 18.64 65.5804 17.872 67.6924 17.872C69.3244 17.872 70.5484 18.46 71.3644 19.636V14.02C71.3644 12.196 71.2804 11.068 71.1124 10.636C70.9684 10.276 70.7524 10.108 70.4644 10.132C69.7684 10.204 69.3484 10.24 69.2044 10.24C68.8924 10.24 68.7364 10.132 68.7364 9.916C68.7364 9.7 68.8684 9.592 69.1324 9.592L70.4284 9.628C71.1484 9.652 72.2524 9.316 73.7404 8.62C73.8364 8.572 73.9204 8.548 73.9924 8.548C74.2324 8.548 74.3524 8.836 74.3524 9.412C74.3524 9.556 74.3524 9.808 74.3524 10.168C74.3284 10.552 74.3164 10.888 74.3164 11.176V23.596C74.3164 29.284 74.3764 32.332 74.4964 32.74C74.5444 32.908 75.1084 32.992 76.1884 32.992C76.5244 32.992 76.6924 33.088 76.6924 33.28ZM71.3644 24.244C71.3644 21.94 71.1124 20.464 70.6084 19.816C69.9604 19 69.1324 18.592 68.1244 18.592C66.8284 18.592 65.7964 19.264 65.0284 20.608C64.2604 21.952 63.8764 23.752 63.8764 26.008C63.8764 28.168 64.2124 30.016 64.8844 31.552C65.1724 32.2 65.5924 32.74 66.1444 33.172C66.7204 33.58 67.3084 33.784 67.9084 33.784C68.6524 33.784 69.3244 33.568 69.9244 33.136C70.5244 32.68 70.9084 32.14 71.0764 31.516C71.2684 30.892 71.3644 28.468 71.3644 24.244ZM96.8375 28.168C96.8375 28.264 96.8135 28.852 96.7655 29.932C96.7175 31.012 96.6935 32.044 96.6935 33.028V34.216C94.3415 34.096 89.6855 34.036 82.7255 34.036C81.8855 34.036 81.0575 34.048 80.2415 34.072C79.4255 34.072 78.8735 34.072 78.5855 34.072H78.2255C77.7695 34.072 77.5415 33.964 77.5415 33.748C77.5415 33.604 77.6135 33.52 77.7575 33.496C77.8295 33.496 78.2855 33.46 79.1255 33.388C79.7495 33.34 80.1215 33.208 80.2415 32.992C80.3855 32.776 80.4575 32.212 80.4575 31.3V11.068C80.4575 10.372 80.3495 9.964 80.1335 9.844C79.9415 9.7 79.2935 9.628 78.1895 9.628C77.8055 9.628 77.6135 9.52 77.6135 9.304C77.6135 9.088 77.8775 8.98 78.4055 8.98L84.5615 9.016C84.7775 9.016 86.1335 9.004 88.6295 8.98C91.1255 8.98 92.8055 8.98 93.6695 8.98C94.3895 8.98 95.0495 8.932 95.6495 8.836C95.6975 9.868 95.8055 11.296 95.9735 13.12L96.1175 14.668C96.1415 14.788 96.1535 14.944 96.1535 15.136C96.1535 15.376 96.0455 15.496 95.8295 15.496C95.5655 15.496 95.3735 15.196 95.2535 14.596C94.7975 12.436 94.0535 11.068 93.0215 10.492C92.2535 10.06 90.2375 9.844 86.9735 9.844H84.0215V20.392H84.8855C87.5735 20.392 89.2055 20.188 89.7815 19.78C90.3815 19.372 90.7895 18.184 91.0055 16.216C91.0535 15.712 91.1855 15.46 91.4015 15.46C91.6655 15.46 91.7975 15.676 91.7975 16.108C91.7975 16.54 91.7735 17.176 91.7255 18.016C91.6775 18.856 91.6535 19.492 91.6535 19.924C91.6535 22.492 91.7015 24.256 91.7975 25.216C91.8215 25.456 91.8335 25.66 91.8335 25.828C91.8335 26.14 91.7015 26.296 91.4375 26.296C91.2695 26.296 91.1495 26.2 91.0775 26.008C91.0295 25.792 90.9335 25.12 90.7895 23.992C90.5975 22.576 90.0095 21.7 89.0255 21.364C88.5935 21.22 87.4655 21.148 85.6415 21.148H84.0215V33.244C89.3015 33.244 92.3975 33.136 93.3095 32.92C94.8935 32.56 95.7935 31.024 96.0095 28.312C96.0575 27.712 96.2135 27.412 96.4775 27.412C96.7175 27.412 96.8375 27.664 96.8375 28.168ZM109.691 20.32C109.691 20.872 109.523 21.328 109.187 21.688C108.851 22.048 108.419 22.228 107.891 22.228C107.459 22.228 107.099 22.108 106.811 21.868C106.523 21.604 106.379 21.28 106.379 20.896C106.379 20.56 106.487 20.272 106.703 20.032C106.919 19.792 107.027 19.624 107.027 19.528C107.027 19.168 106.763 18.988 106.235 18.988C105.563 18.988 104.987 19.408 104.507 20.248C103.955 21.232 103.679 23.056 103.679 25.72V32.848C103.679 33.136 103.775 33.316 103.967 33.388C104.183 33.46 104.807 33.508 105.839 33.532C106.103 33.58 106.235 33.676 106.235 33.82C106.235 33.988 106.079 34.072 105.767 34.072C105.215 34.072 104.699 34.06 104.219 34.036C103.739 34.012 102.827 34 101.483 34C100.787 34 100.283 34.012 99.9706 34.036C99.6586 34.06 99.2626 34.072 98.7826 34.072C98.3986 34.072 98.2066 33.988 98.2066 33.82C98.2066 33.652 98.3626 33.568 98.6746 33.568H99.1786C99.9946 33.568 100.475 33.472 100.619 33.28C100.667 33.184 100.691 32.74 100.691 31.948V22.048C100.691 20.728 100.487 19.972 100.079 19.78C99.6946 19.564 99.0706 19.444 98.2066 19.42C97.9186 19.42 97.7746 19.336 97.7746 19.168C97.7746 19 97.8946 18.916 98.1346 18.916H98.3866C98.7466 18.916 99.1066 18.94 99.4666 18.988C99.8266 19.012 99.9826 19.024 99.9346 19.024C100.823 19.024 101.807 18.772 102.887 18.268L103.355 18.052L103.643 17.944C103.739 18.52 103.787 19.096 103.787 19.672V20.392C104.555 18.712 105.635 17.872 107.027 17.872C107.795 17.872 108.431 18.112 108.935 18.592C109.439 19.048 109.691 19.624 109.691 20.32ZM127.435 19.996C127.435 21.1 126.943 21.652 125.959 21.652C125.623 21.652 125.311 21.544 125.023 21.328C124.759 21.088 124.627 20.824 124.627 20.536C124.627 20.44 124.663 20.296 124.735 20.104C124.807 19.888 124.843 19.72 124.843 19.6C124.843 19.288 124.675 19.132 124.339 19.132C124.051 19.132 123.775 19.288 123.511 19.6C123.247 19.888 123.115 20.188 123.115 20.5C123.115 20.572 123.175 20.98 123.295 21.724C123.415 22.468 123.475 23.032 123.475 23.416C123.475 25.048 122.911 26.416 121.783 27.52C120.655 28.624 119.251 29.176 117.571 29.176C117.139 29.176 116.347 28.996 115.195 28.636C114.883 28.54 114.679 28.492 114.583 28.492C114.079 28.492 113.623 28.696 113.215 29.104C112.807 29.512 112.603 29.956 112.603 30.436C112.603 31.684 113.359 32.308 114.871 32.308C115.447 32.308 116.371 32.2 117.643 31.984C118.627 31.816 119.527 31.732 120.343 31.732C121.807 31.732 122.947 32.116 123.763 32.884C124.603 33.652 125.023 34.72 125.023 36.088C125.023 38.152 124.135 39.868 122.359 41.236C120.607 42.604 118.387 43.288 115.699 43.288C113.707 43.288 112.135 42.88 110.983 42.064C109.855 41.272 109.291 40.168 109.291 38.752C109.291 37.384 109.819 36.352 110.875 35.656C111.403 35.32 112.243 35.02 113.395 34.756C111.691 34.084 110.839 33.052 110.839 31.66C110.839 29.932 111.943 28.732 114.151 28.06C112.711 26.932 111.991 25.444 111.991 23.596C111.991 21.868 112.543 20.488 113.647 19.456C114.751 18.4 116.203 17.872 118.003 17.872C118.987 17.872 119.779 18.004 120.379 18.268C121.003 18.532 121.723 19.06 122.539 19.852C123.307 18.724 124.255 18.16 125.383 18.16C126.751 18.16 127.435 18.772 127.435 19.996ZM120.739 23.56C120.739 20.08 119.779 18.34 117.859 18.34C115.987 18.34 115.051 19.96 115.051 23.2C115.051 26.848 116.047 28.672 118.039 28.672C119.839 28.672 120.739 26.968 120.739 23.56ZM123.511 37.348C123.511 35.356 122.335 34.36 119.983 34.36C119.311 34.36 118.315 34.468 116.995 34.684C115.699 34.9 114.727 35.008 114.079 35.008C112.855 35.656 112.243 36.796 112.243 38.428C112.243 39.652 112.675 40.636 113.539 41.38C114.427 42.124 115.591 42.496 117.031 42.496C118.855 42.496 120.391 41.992 121.639 40.984C122.887 40 123.511 38.788 123.511 37.348ZM142.727 26.224C142.727 28.552 142.019 30.508 140.603 32.092C139.187 33.652 137.423 34.432 135.311 34.432C133.127 34.432 131.303 33.652 129.839 32.092C128.375 30.508 127.643 28.552 127.643 26.224C127.643 23.824 128.351 21.832 129.767 20.248C131.207 18.664 132.995 17.872 135.131 17.872C137.291 17.872 139.091 18.676 140.531 20.284C141.995 21.868 142.727 23.848 142.727 26.224ZM139.451 26.188C139.451 23.548 139.043 21.496 138.227 20.032C137.627 18.952 136.619 18.412 135.203 18.412C133.859 18.412 132.803 19.108 132.035 20.5C131.291 21.868 130.919 23.776 130.919 26.224C130.919 28.648 131.315 30.544 132.107 31.912C132.923 33.256 134.051 33.928 135.491 33.928C136.595 33.928 137.411 33.508 137.939 32.668C138.947 31.084 139.451 28.924 139.451 26.188Z" fill="white"/>
</svg>
