<svg width="162" height="43" viewBox="0 0 162 43" fill="none" xmlns="http://www.w3.org/2000/svg">
<rect y="3" width="162" height="20" fill="#79E048"/>
<rect y="23" width="162" height="20" fill="#48C5E0"/>
<path d="M10.6543 7.17773H15.6641L23.082 29.0098L30.4473 7.17773H35.4043V33H32.082V17.7598C32.082 17.2324 32.0938 16.3594 32.1172 15.1406C32.1406 13.9219 32.1523 12.6152 32.1523 11.2207L24.7871 33H21.3242L13.9062 11.2207V12.0117C13.9062 12.6445 13.918 13.6113 13.9414 14.9121C13.9766 16.2012 13.9941 17.1504 13.9941 17.7598V33H10.6543V7.17773ZM42.7344 27.9902C42.7344 28.9043 43.0684 29.625 43.7363 30.1523C44.4043 30.6797 45.1953 30.9434 46.1094 30.9434C47.2227 30.9434 48.3008 30.6855 49.3438 30.1699C51.1016 29.3145 51.9805 27.9141 51.9805 25.9688V23.4199C51.5938 23.666 51.0957 23.8711 50.4863 24.0352C49.877 24.1992 49.2793 24.3164 48.6934 24.3867L46.7773 24.6328C45.6289 24.7852 44.7676 25.0254 44.1934 25.3535C43.2207 25.9043 42.7344 26.7832 42.7344 27.9902ZM50.3984 21.5918C51.125 21.498 51.6113 21.1934 51.8574 20.6777C51.998 20.3965 52.0684 19.9922 52.0684 19.4648C52.0684 18.3867 51.6816 17.6074 50.9082 17.127C50.1465 16.6348 49.0508 16.3887 47.6211 16.3887C45.9688 16.3887 44.7969 16.834 44.1055 17.7246C43.7188 18.2168 43.4668 18.9492 43.3496 19.9219H40.3965C40.4551 17.6016 41.2051 15.9902 42.6465 15.0879C44.0996 14.1738 45.7812 13.7168 47.6914 13.7168C49.9062 13.7168 51.7051 14.1387 53.0879 14.9824C54.459 15.8262 55.1445 17.1387 55.1445 18.9199V29.7656C55.1445 30.0938 55.209 30.3574 55.3379 30.5566C55.4785 30.7559 55.7656 30.8555 56.1992 30.8555C56.3398 30.8555 56.498 30.8496 56.6738 30.8379C56.8496 30.8145 57.0371 30.7852 57.2363 30.75V33.0879C56.7441 33.2285 56.3691 33.3164 56.1113 33.3516C55.8535 33.3867 55.502 33.4043 55.0566 33.4043C53.9668 33.4043 53.1758 33.0176 52.6836 32.2441C52.4258 31.834 52.2441 31.2539 52.1387 30.5039C51.4941 31.3477 50.5684 32.0801 49.3613 32.7012C48.1543 33.3223 46.8242 33.6328 45.3711 33.6328C43.625 33.6328 42.1953 33.1055 41.082 32.0508C39.9805 30.9844 39.4297 29.6543 39.4297 28.0605C39.4297 26.3145 39.9746 24.9609 41.0645 24C42.1543 23.0391 43.584 22.4473 45.3535 22.2246L50.3984 21.5918ZM62.3516 23.8066C62.3516 25.8223 62.7793 27.5098 63.6348 28.8691C64.4902 30.2285 65.8613 30.9082 67.748 30.9082C69.2129 30.9082 70.4141 30.2812 71.3516 29.0273C72.3008 27.7617 72.7754 25.9512 72.7754 23.5957C72.7754 21.2168 72.2891 19.459 71.3164 18.3223C70.3438 17.1738 69.1426 16.5996 67.7129 16.5996C66.1191 16.5996 64.8242 17.209 63.8281 18.4277C62.8438 19.6465 62.3516 21.4395 62.3516 23.8066ZM67.1152 13.8398C68.5566 13.8398 69.7637 14.1445 70.7363 14.7539C71.2988 15.1055 71.9375 15.7207 72.6523 16.5996V7.08984H75.6934V33H72.8457V30.3809C72.1074 31.541 71.2344 32.3789 70.2266 32.8945C69.2188 33.4102 68.0645 33.668 66.7637 33.668C64.666 33.668 62.8496 32.7891 61.3145 31.0312C59.7793 29.2617 59.0117 26.9121 59.0117 23.9824C59.0117 21.2402 59.709 18.8672 61.1035 16.8633C62.5098 14.8477 64.5137 13.8398 67.1152 13.8398ZM81.1426 7.17773H99.9688V10.3418H84.5527V18.1816H98.8086V21.1699H84.5527V29.9238H100.232V33H81.1426V7.17773ZM104.486 14.1738H107.492V17.4258C107.738 16.793 108.342 16.0254 109.303 15.123C110.264 14.209 111.371 13.752 112.625 13.752C112.684 13.752 112.783 13.7578 112.924 13.7695C113.064 13.7813 113.305 13.8047 113.645 13.8398V17.1797C113.457 17.1445 113.281 17.1211 113.117 17.1094C112.965 17.0977 112.795 17.0918 112.607 17.0918C111.014 17.0918 109.789 17.6074 108.934 18.6387C108.078 19.6582 107.65 20.8359 107.65 22.1719V33H104.486V14.1738ZM123.031 13.8398C124.508 13.8398 125.797 14.2031 126.898 14.9297C127.496 15.3398 128.105 15.9375 128.727 16.7227V14.3496H131.645V31.4707C131.645 33.8613 131.293 35.748 130.59 37.1309C129.277 39.6855 126.799 40.9629 123.154 40.9629C121.127 40.9629 119.422 40.5059 118.039 39.5918C116.656 38.6895 115.883 37.2715 115.719 35.3379H118.936C119.088 36.1816 119.393 36.832 119.85 37.2891C120.564 37.9922 121.689 38.3438 123.225 38.3438C125.65 38.3438 127.238 37.4883 127.988 35.7773C128.434 34.7695 128.639 32.9707 128.604 30.3809C127.971 31.3418 127.209 32.0566 126.318 32.5254C125.428 32.9941 124.25 33.2285 122.785 33.2285C120.746 33.2285 118.959 32.5078 117.424 31.0664C115.9 29.6133 115.139 27.2168 115.139 23.877C115.139 20.7246 115.906 18.2637 117.441 16.4941C118.988 14.7246 120.852 13.8398 123.031 13.8398ZM128.727 23.5078C128.727 21.1758 128.246 19.4473 127.285 18.3223C126.324 17.1973 125.1 16.6348 123.611 16.6348C121.385 16.6348 119.861 17.6777 119.041 19.7637C118.607 20.877 118.391 22.3359 118.391 24.1406C118.391 26.2617 118.818 27.8789 119.674 28.9922C120.541 30.0938 121.701 30.6445 123.154 30.6445C125.428 30.6445 127.027 29.6191 127.953 27.5684C128.469 26.4082 128.727 25.0547 128.727 23.5078ZM143.896 30.9609C145.994 30.9609 147.43 30.1699 148.203 28.5879C148.988 26.9941 149.381 25.2246 149.381 23.2793C149.381 21.5215 149.1 20.0918 148.537 18.9902C147.646 17.2559 146.111 16.3887 143.932 16.3887C141.998 16.3887 140.592 17.127 139.713 18.6035C138.834 20.0801 138.395 21.8613 138.395 23.9473C138.395 25.9512 138.834 27.6211 139.713 28.957C140.592 30.293 141.986 30.9609 143.896 30.9609ZM144.02 13.6289C146.445 13.6289 148.496 14.4375 150.172 16.0547C151.848 17.6719 152.686 20.0508 152.686 23.1914C152.686 26.2266 151.947 28.7344 150.471 30.7148C148.994 32.6953 146.703 33.6855 143.598 33.6855C141.008 33.6855 138.951 32.8125 137.428 31.0664C135.904 29.3086 135.143 26.9531 135.143 24C135.143 20.8359 135.945 18.3164 137.551 16.4414C139.156 14.5664 141.312 13.6289 144.02 13.6289Z" fill="white"/>
</svg>
